Patient4_TMGait_0pt4_02_left_01_EMG.mot
version=1
nRows=33
nColumns=33
inDegrees=no
endheader
time	1LAddLong	2LGlutMax	3LGlutMed	4LIliopsoas	5LSemiMemb	6LBicFemLong	7LRecFem	8LVastMed	9LVastLat	10LGasMed	11LTibAnt	12lTibPost	13LPeroneusLong	14LSol	15LExtDigLong	16LFlexDigLong	17RAddLong	18RGlutMax	19RGlutMed	20RIliopsoas	21RSemiMemb	22RBicFemLong	23RRecFem	24RVastMed	25RVastLat	26RGasMed	27RTibAnt	28RTibPost	29RPeroneusLong	30RSol	31RExtDigLong	32RFlexDigLong
1.19	0.045776	-0.18631	0.013885	-0.001831	-0.002747	0.027771	0.13229	0.016174	-0.1709	-0.070038	0.025787	-0.004578	0.031586	-0.032654	0.72479	-0.019073	-0.007477	-0.22003	0.30716	-0.068817	-0.059204	0.089417	0.050354	-0.089569	0.22171	0.001831	0.14725	-0.003052	-0.11337	0.13077	0.000916	-0.003815
1.191	0.020142	-0.095825	0.009766	0.007477	-0.002747	0.024872	0.12344	0.014191	-0.19791	-0.053406	0.074768	0.010376	0.045013	-0.046082	-0.23605	-0.016174	-0.008545	-0.20386	0.29221	-0.042267	-0.056763	0.070038	0.004578	-0.095367	0.14481	0.001373	0.15152	-0.007629	0.48462	0.11337	-0.000458	0.000763
1.192	0.014191	0.005035	0.006714	0.013123	-0.007629	0.024109	0.11505	0.016937	-0.19684	-0.023193	0.059662	0.005035	0.014343	-0.031433	-0.43564	0.010986	-0.007935	-0.21072	0.29831	0.061493	-0.033875	0.001221	0.033112	0.013733	0.12283	0.002136	0.11902	-0.002136	0.31479	0.022583	-0.002441	0.000763
1.193	0.006256	0.079651	0.003357	0.00946	-0.010834	0.021515	0.10742	0.01709	-0.18997	0.005188	0.046082	0.009155	-0.012817	-0.047607	-0.26413	-0.006561	-0.015411	-0.24445	0.2536	0.073242	0.095673	-0.061493	-0.072937	0.11215	0.10407	-0.005493	0.095978	0	0.044098	-0.086517	-0.00412	0.001831
1.194	0.009308	0.14206	-0.01297	0.001831	-0.001831	0.032501	0.11154	0.016632	-0.19226	0.026093	0.047913	0.005951	0.006714	-0.071716	-0.17441	-0.014191	-0.010223	-0.25177	0.14786	0.031281	0.087433	-0.14008	-0.12741	0.040131	-0.3447	-0.001678	0.11246	-0.004578	-0.33066	-0.054016	-0.00351	0.008087
1.195	0.006714	0.16983	-0.011292	0.011597	-0.001373	0.031433	0.10452	0.010529	-0.17639	-0.000153	0.031433	0.006866	-0.003357	-0.089264	-0.084839	-0.013123	0.004425	-0.21362	0.11459	0.038605	0.032349	-0.13931	-0.1149	-0.046539	-0.51468	0.00061	0.10696	-0.001221	-0.38971	-0.059509	-0.003662	0.00061
1.196	0.009918	0.23102	-0.015411	0.026855	0.000458	0.001526	0.11719	0.006561	-0.17105	0.010681	-0.067444	0.002747	0.002594	-0.0354	0.31326	-0.005493	0.011444	-0.22003	0.24719	0.054169	0.011292	-0.092316	0.002136	-0.055695	-0.35461	-0.005798	0.11047	-0.004578	-0.22827	-0.052185	-0.000916	0.001526
1.197	0.010986	0.2562	-0.006714	0.016785	0.003815	0.019073	0.08255	0.011597	-0.15564	0.007019	-0.16968	0.011749	0.023651	-0.024261	0.056305	-0.010681	0.004578	-0.22003	0.30563	0.057526	0.032806	-0.082397	-0.044708	0.092316	-0.15305	0.000458	0.074158	0.000305	0.21347	-0.035095	0.000153	0.002289
1.198	0.003815	0.30075	-0.001221	0.014343	-0.003052	0.021515	0.091248	0.014648	-0.11383	0.039978	-0.078583	-0.005341	-0.023193	-0.024261	0.058594	-0.001373	0.020599	-0.2002	0.25131	0.021362	0.013275	-0.080719	0.14542	0.14542	-0.043335	0.004425	0.10376	-0.002594	0.47363	-0.021667	-0.005188	0.000458
1.199	0.007019	0.34393	-0.012054	-0.002289	0.001221	0.030975	0.091095	0.015411	-0.083923	0.016327	-0.029144	-0.001068	0.000763	0.014954	-0.15686	-0.001831	0.032043	-0.16785	0.22873	-0.065002	0.007782	-0.11353	0.35507	0.056	-0.067902	-0.010223	0.16403	-0.003204	-0.018921	-0.029297	-0.004272	0.003052
1.2	0.015106	0.39108	-0.018005	-0.004578	-0.005798	0.050659	0.072784	0.013428	-0.066528	-0.003967	-0.00061	-0.008698	0.05661	0.044708	-0.092316	-0.015106	0.031281	-0.13351	0.25726	-0.042725	0.002594	-0.081482	0.36636	-0.079041	-0.07431	-0.014648	0.27771	-0.002136	-0.096588	-0.019684	-0.002747	0
1.201	0.002289	0.40009	-0.010986	-0.000916	0	0.019836	0.054626	0.014496	-0.04364	0.006714	0.018768	0.004578	0.035553	0.08606	-0.004578	-0.016937	0.006409	-0.17487	0.016022	0.00351	0.013733	-0.055847	-0.047302	-0.22995	-0.031738	-0.012512	0.25711	-0.002594	0.68497	-0.041962	0.00473	-0.007782
1.202	0.005951	0.41672	-0.008545	0.007477	0.003815	0.02655	0.059967	0.020599	-0.028076	0.00061	0.050964	0.004272	0.006714	0.030365	0.072174	-0.008392	-0.006409	-0.15182	0.10284	-0.011597	-0.00061	-0.032654	-0.45075	-0.19257	-0.035095	-0.007629	0.36682	-0.005188	-0.15442	-0.010223	-0.002441	-0.009308
1.203	0	0.47546	0.001068	0.030823	-0.002289	0.034637	0.060425	0.013428	-0.02655	-0.025635	-0.019379	0.005188	0.006714	-0.014648	0.057526	-0.002289	0.012512	-0.16205	0.11292	-0.024414	0.002594	-0.024414	-0.37247	-0.034943	0.029755	-0.016632	0.30624	-0.004578	-0.34073	0.048828	-0.004425	-0.003967
1.204	0.005188	0.47028	0.007935	-0.001373	-0.001221	0.030975	0.053253	0.013885	0.000305	-0.045013	-0.10284	-0.007782	0.023804	-0.043945	0.066223	-0.000916	0.013123	-0.10117	0.54336	-0.09613	-0.015106	-0.043182	-0.061951	0.004578	-0.070953	-0.009155	-0.025787	-0.002899	-0.038605	0.053711	-0.001984	-0.007629
1.205	0.007782	0.46997	0.006866	0.010376	-0.00351	0.018616	0.060577	0.008545	0.004425	-0.023499	-0.042572	0.00351	-0.003357	-0.11643	0.10941	0.005035	0.021057	-0.037079	0.79971	-0.097809	0.009918	-0.066986	0.006409	-0.008087	-0.10407	-0.009613	-0.2092	-0.006256	0.56519	0.014496	-0.004425	0.002747
1.206	0.007629	0.51621	-0.008392	0.010986	0.006866	-0.002747	0.041809	0.012665	0.011749	-0.045929	0.031433	0.002899	0.007477	-0.17334	0.14511	-0.006714	0.01236	-0.061493	0.32425	0.049744	0.062561	-0.048523	-0.019836	0.052185	-0.087433	-0.003967	-0.41153	-0.010834	1.0155	-0.039063	-0.003052	-0.000458
1.207	0.005951	0.52445	-0.026703	0.005646	0.007782	-0.003967	0.018311	0.011902	0.024872	-0.037842	0.02655	0.007019	0.040436	-0.090332	0.06897	-0.004272	0.026093	-0.00824	0.49957	0.029907	-0.078888	-0.063782	-0.11215	0.075989	-0.032196	-0.001373	-0.24155	-0.017395	0.43091	-0.079651	0.001221	-0.001526
1.208	0.005035	0.53909	-0.017242	0.004425	0.009918	0.011139	0.050507	0.012817	0.034027	-0.017548	-0.007782	-0.002136	0.03891	-0.017395	0.058899	0.005493	0.031128	0.014343	0.59921	0.016937	-0.043945	-0.10605	-0.086517	0.006714	0.010834	0.004578	-0.15091	-0.002899	-0.24872	-0.10376	-0.00412	-0.002441
1.209	0.003357	0.551	-0.007935	0.016022	0.005646	0.007782	0.020447	0.01236	0.050812	-0.007782	-0.002594	-0.005188	0.019073	-0.006561	0.076752	0.005188	-0.016479	0.020599	-0.02533	0.031128	-0.20004	-0.045471	-0.028687	0.003357	0.008087	0.002899	-0.25848	0.001068	-0.39108	-0.024261	-0.002136	-0.001678
1.21	0.003204	0.54886	0.016327	0.011902	0.007019	-0.001373	0.031586	0.008392	0.070801	-0.007935	0.028381	-0.010223	0.003967	0.10483	0.11581	-0.001678	-0.003052	0.025482	0.025024	-0.026855	-0.14175	-0.053101	-0.009155	-0.009308	0.050201	-0.002594	-0.13855	0.002747	-0.35996	-0.007935	-0.002899	0.007019
1.211	0.00473	0.51712	0.015411	0.005493	0.009918	0.006104	0.023041	0.009155	0.074615	-0.01358	0.065613	-0.008698	-0.019989	0.082397	0.20813	0.000458	0.015564	0.001068	0.42023	0.001984	-0.007324	-0.038757	-0.008698	0.020905	0.042877	-0.005493	-0.010834	0.001984	-0.60394	0.063171	-0.001373	0.009155
1.212	0.002441	0.47119	0.007629	0.01709	0.019379	0.015717	0.032959	0.012207	0.076904	-0.000916	0.06485	0.002747	-0.048523	-0.048676	0.03479	-0.009155	-0.011597	-0.089111	0.72342	0.076294	0.013428	-0.005188	-0.093536	-0.027161	0.035553	-0.013428	-0.037231	-0.001068	-0.42648	0.049744	0.002747	0.00061
1.213	0.001373	0.42404	-0.024414	0.013885	0.020447	0.038452	0.030823	0.010834	0.086975	-0.02594	0.034485	-0.005035	-0.043182	-0.18753	0.30197	-0.000305	-0.018158	-0.023499	0.26428	0.029907	0.070801	-0.021973	-0.058746	-0.039978	0.006104	-0.007935	-0.084534	-0.000916	-0.17548	-0.03006	-0.003357	0.005493
1.214	0.003815	0.41458	-0.014496	0.011749	0.030365	0.03418	0.023804	0.018463	0.09964	-0.053406	-0.015717	0.006409	-0.014496	-0.26886	-0.18158	-0.002747	0.002441	0.028076	0.080414	0.025635	0.070343	-0.069733	-0.02594	-0.036316	-0.014496	0.000153	-0.06012	-0.005646	0.099182	-0.17258	-0.00412	-0.002136
1.215	0.00351	0.41489	0.01358	0.002136	0.011444	0.054626	0.028381	0.012054	0.10574	-0.064697	0.006866	-0.000305	-0.036316	-0.21851	-0.36728	-0.007477	0.010834	0.07843	0.38422	0.036469	0.041809	-0.041199	-0.022583	-0.053406	-0.015564	0.00473	-0.022736	-0.005798	0.081329	-0.26047	-0.002899	-0.000305
1.216	0.009155	0.40268	-0.024567	0.008087	-0.019684	0.018311	0.001984	0.011597	0.10941	-0.01709	-0.03418	0.002136	-0.031738	-0.12573	-0.1239	-0.00412	0.015869	0.076904	0.10742	0.06485	0.02121	0.040436	0.021362	-0.04776	-0.029907	0.012054	-0.005341	-0.005798	0.032349	-0.12634	-0.003204	0.002747
1.217	0.015869	0.39932	-0.0177	-0.008392	-0.016174	-0.026398	0.01236	0.009308	0.10696	0.010376	-0.033264	0.002747	0.034485	-0.014648	-0.14755	-0.009308	0.009613	0.013428	0.17609	-0.040283	-0.10147	0.10819	-0.045013	-0.070953	-0.045319	0.003204	0.016632	-0.002747	0.028992	-0.045166	-0.00061	0.004578
1.218	0.012665	0.3717	0.02243	0.011749	-0.013733	-0.019684	0.010223	0.006561	0.10681	0.025177	-0.019531	-0.000458	0.11612	0.002136	-0.10635	-0.006714	-0.003052	0.002899	0.42404	-0.16647	-0.040588	0.068359	-0.067596	-0.066681	-0.051727	-0.001373	0.039215	-0.002441	0.046844	-0.092773	0.002747	0.001068
1.219	0.012665	0.31418	-0.007019	-0.004272	-0.000916	0.000763	-0.003662	0.016174	0.10941	0.02243	-0.013275	-0.004883	0.074463	0.04364	-0.009155	-0.002289	-0.001526	0.037689	0.3035	-0.27222	0.079956	-0.037079	0.048828	-0.089722	-0.048828	-0.003357	0.022278	-0.002594	0.026245	-0.013275	-0.00061	-0.009308
1.22	0.007019	0.31113	-0.036011	-0.006714	0.001526	0.007324	0.012207	0.004272	0.11536	-0.010071	-0.009766	0.003662	0.039215	0.071869	0.029907	0.005341	-0.006714	0.019226	-0.02182	-0.17441	0.07019	-0.032654	0.066223	0.033875	-0.057831	0.003204	0.03067	-0.006409	-0.041656	0.13947	-0.008087	-0.009308
1.221	0.00824	0.31204	-0.03479	0.007629	0.004272	0.01297	0.012054	0.009918	0.10773	-0.015869	-0.006104	-0.008545	0.017242	0.070801	0.075073	-0.000763	-0.015564	0.040131	-0.53787	-0.049896	0.055237	-0.016174	0.19974	0.12085	-0.069122	-0.007019	0.076599	-0.002747	-0.048676	0.48782	-0.002747	-0.010223
1.222	0.008698	0.27252	-0.062714	0.012054	0.008087	0.007782	0.009003	0.009613	0.099335	0.00351	0.005798	-0.002136	-0.007782	-0.005951	0.055084	-0.00351	0.001373	0.081329	-0.67688	0.070496	0.009766	-0.028992	0.16922	0.054932	-0.041962	-0.0177	0.13794	-0.003967	0.019379	0.4602	-0.004272	-0.002441
